<svg width="24" height="25" viewBox="0 0 24 25" fill="none" xmlns="http://www.w3.org/2000/svg">
<path d="M12 3.5V20.5C12 20.7652 11.8946 21.0196 11.7071 21.2071C11.5196 21.3946 11.2652 21.5 11 21.5H5C4.46957 21.5 3.96086 21.2893 3.58579 20.9142C3.21071 20.5391 3 20.0304 3 19.5V5.5C3 4.96957 3.21071 4.46086 3.58579 4.08579C3.96086 3.71071 4.46957 3.5 5 3.5H19C19.5304 3.5 20.0391 3.71071 20.4142 4.08579C20.7893 4.46086 21 4.96957 21 5.5V11.5C21 11.7652 20.8946 12.0196 20.7071 12.2071C20.5196 12.3946 20.2652 12.5 20 12.5H3" stroke="black" stroke-linecap="round" stroke-linejoin="round"/>
<path d="M15.7324 20.5898H18.8818V20.4287C18.8818 20.3311 18.9014 20.2611 18.9404 20.2188C18.9795 20.1764 19.0299 20.1553 19.0918 20.1553C19.1504 20.1553 19.1992 20.1764 19.2383 20.2188C19.2773 20.2611 19.2969 20.3311 19.2969 20.4287V21H15.332V20.3945C16.1654 19.6458 16.9759 18.8841 17.7637 18.1094C18.1315 17.748 18.3838 17.4827 18.5205 17.3135C18.6572 17.1442 18.75 16.9961 18.7988 16.8691C18.8509 16.7389 18.877 16.6087 18.877 16.4785C18.877 16.127 18.7354 15.8161 18.4521 15.5459C18.1689 15.2757 17.8271 15.1406 17.4268 15.1406C17.0687 15.1406 16.7513 15.2432 16.4746 15.4482C16.1979 15.6533 16.0189 15.9072 15.9375 16.21C15.918 16.2881 15.8936 16.3385 15.8643 16.3613C15.8252 16.3939 15.7796 16.4102 15.7275 16.4102C15.6722 16.4102 15.625 16.3923 15.5859 16.3564C15.5501 16.3174 15.5322 16.2718 15.5322 16.2197C15.5322 16.0635 15.6169 15.8519 15.7861 15.585C15.9587 15.318 16.1947 15.1081 16.4941 14.9551C16.7969 14.8021 17.1061 14.7256 17.4219 14.7256C17.9329 14.7256 18.3724 14.903 18.7402 15.2578C19.1081 15.6126 19.292 16.0146 19.292 16.4639C19.292 16.6527 19.2611 16.8268 19.1992 16.9863C19.1374 17.1426 19.0316 17.3151 18.8818 17.5039C18.7354 17.6895 18.4701 17.971 18.0859 18.3486C17.1224 19.2992 16.3379 20.0365 15.7324 20.5605V20.5898Z" fill="black"/>
</svg>
