<svg width="24" height="25" viewBox="0 0 24 25" fill="none" xmlns="http://www.w3.org/2000/svg">
<g clip-path="url(#clip0_4115_195)">
<path d="M12 3.9707V20.9707C12 21.2359 11.8946 21.4903 11.7071 21.6778C11.5196 21.8653 11.2652 21.9707 11 21.9707H5C4.46957 21.9707 3.96086 21.76 3.58579 21.3849C3.21071 21.0098 3 20.5011 3 19.9707V5.9707C3 5.44027 3.21071 4.93156 3.58579 4.55649C3.96086 4.18142 4.46957 3.9707 5 3.9707H19C19.5304 3.9707 20.0391 4.18142 20.4142 4.55649C20.7893 4.93156 21 5.44027 21 5.9707V11.9707C21 12.2359 20.8946 12.4903 20.7071 12.6778C20.5196 12.8653 20.2652 12.9707 20 12.9707H3" stroke="black" stroke-linecap="round" stroke-linejoin="round"/>
<path d="M15.5708 18.1147V19.5503C15.5708 19.6187 15.5571 19.6676 15.5298 19.6973C15.5024 19.7269 15.4671 19.7417 15.4238 19.7417C15.3828 19.7417 15.3486 19.7269 15.3213 19.6973C15.2939 19.6676 15.2803 19.6187 15.2803 19.5503V18.1147H14.0088C13.9404 18.1147 13.8914 18.1022 13.8618 18.0771C13.8322 18.0498 13.8174 18.0145 13.8174 17.9712C13.8174 17.9279 13.8322 17.8937 13.8618 17.8687C13.8914 17.8413 13.9404 17.8276 14.0088 17.8276H15.2803V16.3989C15.2803 16.3306 15.2939 16.2816 15.3213 16.252C15.3486 16.2223 15.384 16.2075 15.4272 16.2075C15.4683 16.2075 15.5024 16.2223 15.5298 16.252C15.5571 16.2816 15.5708 16.3306 15.5708 16.3989V17.8276H16.8423C16.9106 17.8276 16.9596 17.8413 16.9893 17.8687C17.0189 17.8937 17.0337 17.9279 17.0337 17.9712C17.0337 18.0145 17.0189 18.0498 16.9893 18.0771C16.9596 18.1022 16.9106 18.1147 16.8423 18.1147H15.5708ZM20.1646 18.771H18.2607V18.4395L19.8569 15.6812H20.4551V18.4839H20.6943C20.765 18.4839 20.8151 18.4976 20.8447 18.5249C20.8743 18.55 20.8892 18.5841 20.8892 18.6274C20.8892 18.6685 20.8743 18.7026 20.8447 18.73C20.8151 18.7573 20.765 18.771 20.6943 18.771H20.4551V19.6836H20.6943C20.765 19.6836 20.8151 19.6973 20.8447 19.7246C20.8743 19.7497 20.8892 19.7839 20.8892 19.8271C20.8892 19.8682 20.8743 19.9023 20.8447 19.9297C20.8151 19.957 20.765 19.9707 20.6943 19.9707H19.6279C19.5573 19.9707 19.5072 19.957 19.4775 19.9297C19.4479 19.9023 19.4331 19.8682 19.4331 19.8271C19.4331 19.7839 19.4479 19.7497 19.4775 19.7246C19.5072 19.6973 19.5573 19.6836 19.6279 19.6836H20.1646V18.771ZM20.1646 18.4839V15.9717H20.0142L18.5615 18.4839H20.1646Z" fill="black"/>
</g>
<defs>
<clipPath id="clip0_4115_195">
<rect width="24" height="24" fill="white" transform="translate(0 0.970703)"/>
</clipPath>
</defs>
</svg>
