<svg width="24" height="25" viewBox="0 0 24 25" fill="none" xmlns="http://www.w3.org/2000/svg">
<path d="M12 3.9707V20.9707C12 21.2359 11.8946 21.4903 11.7071 21.6778C11.5196 21.8653 11.2652 21.9707 11 21.9707H5C4.46957 21.9707 3.96086 21.76 3.58579 21.3849C3.21071 21.0098 3 20.5011 3 19.9707V5.9707C3 5.44027 3.21071 4.93156 3.58579 4.55649C3.96086 4.18142 4.46957 3.9707 5 3.9707H19C19.5304 3.9707 20.0391 4.18142 20.4142 4.55649C20.7893 4.93156 21 5.44027 21 5.9707V11.9707C21 12.2359 20.8946 12.4903 20.7071 12.6778C20.5196 12.8653 20.2652 12.9707 20 12.9707H3" stroke="black" stroke-linecap="round" stroke-linejoin="round"/>
<path d="M16.2617 18.8789V20.5195C16.2617 20.5977 16.2461 20.6536 16.2148 20.6875C16.1836 20.7214 16.1432 20.7383 16.0938 20.7383C16.0469 20.7383 16.0078 20.7214 15.9766 20.6875C15.9453 20.6536 15.9297 20.5977 15.9297 20.5195V18.8789H14.4766C14.3984 18.8789 14.3424 18.8646 14.3086 18.8359C14.2747 18.8047 14.2578 18.7643 14.2578 18.7148C14.2578 18.6654 14.2747 18.6263 14.3086 18.5977C14.3424 18.5664 14.3984 18.5508 14.4766 18.5508H15.9297V16.918C15.9297 16.8398 15.9453 16.7839 15.9766 16.75C16.0078 16.7161 16.0482 16.6992 16.0977 16.6992C16.1445 16.6992 16.1836 16.7161 16.2148 16.75C16.2461 16.7839 16.2617 16.8398 16.2617 16.918V18.5508H17.7148C17.793 18.5508 17.849 18.5664 17.8828 18.5977C17.9167 18.6263 17.9336 18.6654 17.9336 18.7148C17.9336 18.7643 17.9167 18.8047 17.8828 18.8359C17.849 18.8646 17.793 18.8789 17.7148 18.8789H16.2617ZM19.4883 20.6719H22.0078V20.543C22.0078 20.4648 22.0234 20.4089 22.0547 20.375C22.0859 20.3411 22.1263 20.3242 22.1758 20.3242C22.2227 20.3242 22.2617 20.3411 22.293 20.375C22.3242 20.4089 22.3398 20.4648 22.3398 20.543V21H19.168V20.5156C19.8346 19.9167 20.4831 19.3073 21.1133 18.6875C21.4076 18.3984 21.6094 18.1862 21.7188 18.0508C21.8281 17.9154 21.9023 17.7969 21.9414 17.6953C21.9831 17.5911 22.0039 17.487 22.0039 17.3828C22.0039 17.1016 21.8906 16.8529 21.6641 16.6367C21.4375 16.4206 21.1641 16.3125 20.8438 16.3125C20.5573 16.3125 20.3034 16.3945 20.082 16.5586C19.8607 16.7227 19.7174 16.9258 19.6523 17.168C19.6367 17.2305 19.6172 17.2708 19.5938 17.2891C19.5625 17.3151 19.526 17.3281 19.4844 17.3281C19.4401 17.3281 19.4023 17.3138 19.3711 17.2852C19.3424 17.2539 19.3281 17.2174 19.3281 17.1758C19.3281 17.0508 19.3958 16.8815 19.5312 16.668C19.6693 16.4544 19.8581 16.2865 20.0977 16.1641C20.3398 16.0417 20.5872 15.9805 20.8398 15.9805C21.2487 15.9805 21.6003 16.1224 21.8945 16.4062C22.1888 16.6901 22.3359 17.0117 22.3359 17.3711C22.3359 17.5221 22.3112 17.6615 22.2617 17.7891C22.2122 17.9141 22.1276 18.0521 22.0078 18.2031C21.8906 18.3516 21.6784 18.5768 21.3711 18.8789C20.6003 19.6393 19.9727 20.2292 19.4883 20.6484V20.6719Z" fill="black"/>
</svg>
