<svg width="24" height="24" viewBox="0 0 24 24" fill="none" xmlns="http://www.w3.org/2000/svg">
<path d="M5 4L5 20C5 21.1046 5.89543 22 7 22H17C18.1046 22 19 21.1046 19 20V4C19 2.89543 18.1046 2 17 2H7C5.89543 2 5 2.89543 5 4Z" stroke="black" stroke-linecap="round" stroke-linejoin="round"/>
<path d="M10.2466 12.3594V13.5317C10.2466 13.7004 10.2147 13.8211 10.1509 13.894C10.0871 13.9647 10.0028 14 9.89795 14C9.79313 14 9.70768 13.9647 9.6416 13.894C9.5778 13.8211 9.5459 13.7004 9.5459 13.5317V12.3594H8.54443C8.37581 12.3594 8.25505 12.3275 8.18213 12.2637C8.11149 12.1976 8.07617 12.1121 8.07617 12.0073C8.07617 11.9025 8.11149 11.8182 8.18213 11.7544C8.25505 11.6883 8.37581 11.6564 8.54443 11.6587H9.5459V10.4897C9.5459 10.3234 9.5778 10.2038 9.6416 10.1309C9.70768 10.0579 9.79313 10.0215 9.89795 10.0215C10.0028 10.0215 10.0871 10.0579 10.1509 10.1309C10.217 10.2015 10.25 10.3211 10.25 10.4897L10.2466 11.6587H11.248C11.4167 11.6587 11.5363 11.6906 11.6069 11.7544C11.6799 11.8182 11.7163 11.9025 11.7163 12.0073C11.7163 12.1121 11.6799 12.1976 11.6069 12.2637C11.5363 12.3275 11.4167 12.3594 11.248 12.3594H10.2466ZM14.4575 9.46436V13.2993H15.165C15.3337 13.2993 15.4533 13.3324 15.5239 13.3984C15.5968 13.4622 15.6333 13.5465 15.6333 13.6514C15.6333 13.7539 15.5968 13.8382 15.5239 13.9043C15.4533 13.9681 15.3337 14 15.165 14H13.0493C12.8807 14 12.7599 13.9681 12.687 13.9043C12.6164 13.8382 12.5811 13.7528 12.5811 13.6479C12.5811 13.5454 12.6164 13.4622 12.687 13.3984C12.7599 13.3324 12.8807 13.2993 13.0493 13.2993H13.7568V10.377L13.1313 10.541C13.0311 10.5684 12.9559 10.582 12.9058 10.582C12.8169 10.582 12.7394 10.5467 12.6733 10.4761C12.6095 10.4054 12.5776 10.3188 12.5776 10.2163C12.5776 10.1229 12.6016 10.05 12.6494 9.99756C12.6973 9.94287 12.7975 9.89502 12.9502 9.854L14.4575 9.46436Z" fill="black"/>
</svg>
